<?xml version="1.0" standalone="no"?><!DOCTYPE svg PUBLIC "-//W3C//DTD SVG 1.1//EN" "http://www.w3.org/Graphics/SVG/1.1/DTD/svg11.dtd"><svg t="1604395523757" class="icon" viewBox="0 0 1080 1024" version="1.1" xmlns="http://www.w3.org/2000/svg" p-id="7885" xmlns:xlink="http://www.w3.org/1999/xlink" width="135" height="128"><defs><style type="text/css"></style></defs><path d="M1047.923277 256.320828L591.142042 13.367819C559.741887-3.981904 512.243465-3.981904 480.786426 13.367819L31.968998 256.320828c-19.79575 11.092446-31.513923 27.645788-31.513923 46.702041 0 19.056253 12.343901 36.292208 32.708494 47.384654l456.781235 243.009892c15.984499 8.589535 35.780249 12.912745 55.519114 12.912745s39.477731-4.32321 54.893387-12.912745l448.760543-243.009892c19.738865-11.092446 31.457039-27.645788 31.457039-46.702042 0.056884-19.056253-12.287017-36.292208-32.65161-47.384653zM573.394128 530.673991c-14.846812 7.963807-42.663254 7.963807-58.022024 0l-432.832929-226.96851 425.893039-227.252931c14.846812-7.963807 42.663254-7.963807 58.022025 0l429.874944 227.252931-422.935055 226.96851zM489.944804 1010.948457L33.163569 767.938565c-13.595357-7.394964-20.762783-30.888196-13.936663-44.369784 7.394964-13.538472 27.475135-20.137056 40.956724-13.367819l459.625452 240.734519a55.575998 55.575998 0 0 0 50.399524 0l446.88336-240.734519c13.595357-7.394964 38.908887-4.948937 46.246967 8.53265 7.394964 13.595357 7.565617 35.26829-6.02974 42.663254l-456.895004 248.925864c-15.415656 9.215263-35.154521 13.538472-54.893386 13.538472a118.888267 118.888267 0 0 1-55.575999-12.912745z" p-id="7886" fill="#ffffff"></path><path d="M489.944804 794.787973L33.163569 551.77808c-13.595357-7.394964-20.762783-30.888196-13.936663-44.369784 7.394964-13.538472 27.475135-20.137056 40.956724-13.367819l459.625452 240.734519a55.575998 55.575998 0 0 0 50.399524 0l446.88336-240.734519c13.595357-7.394964 38.908887-4.948937 46.246967 8.53265 7.394964 13.595357 7.565617 35.26829-6.02974 42.663254l-456.895004 248.925864c-15.415656 9.215263-35.154521 13.538472-54.893386 13.538472a118.888267 118.888267 0 0 1-55.575999-12.912744z" p-id="7887" fill="#ffffff"></path></svg>