<?xml version="1.0" standalone="no"?><!DOCTYPE svg PUBLIC "-//W3C//DTD SVG 1.1//EN" "http://www.w3.org/Graphics/SVG/1.1/DTD/svg11.dtd"><svg t="1604395409606" class="icon" viewBox="0 0 1024 1024" version="1.1" xmlns="http://www.w3.org/2000/svg" p-id="3318" width="128" height="128" xmlns:xlink="http://www.w3.org/1999/xlink"><defs><style type="text/css"></style></defs><path d="M822.005479 1024h-575.123287C171.134247 1024 109.413699 963.682192 109.413699 890.739726v-757.479452C109.413699 60.317808 171.134247 0 246.882192 0h416.613698c12.624658 0 21.041096 9.819178 21.041096 21.041096S676.120548 42.082192 663.49589 42.082192H246.882192C194.980822 42.082192 151.49589 82.761644 151.49589 133.260274v757.479452c0 50.49863 42.082192 91.178082 95.386302 91.178082h575.123287c51.90137 0 95.386301-40.679452 95.386302-91.178082V338.060274c0-11.221918 9.819178-21.041096 21.041096-21.041096s21.041096 9.819178 21.041096 21.041096v552.679452c0 72.942466-61.720548 133.260274-137.468494 133.260274z" p-id="3319" fill="#ffffff"></path><path d="M225.841096 279.145205H46.290411c-11.221918 0-21.041096-9.819178-21.041096-21.041095s9.819178-21.041096 21.041096-21.041096h179.550685c11.221918 0 21.041096 9.819178 21.041096 21.041096s-9.819178 21.041096-21.041096 21.041095zM483.945205 385.753425H304.394521c-11.221918 0-21.041096-9.819178-21.041096-21.041096s9.819178-21.041096 21.041096-21.041096h179.550684c11.221918 0 21.041096 9.819178 21.041096 21.041096s-8.416438 21.041096-21.041096 21.041096zM795.353425 643.857534h-490.958904c-11.221918 0-21.041096-9.819178-21.041096-21.041096s9.819178-21.041096 21.041096-21.041096h490.958904c11.221918 0 21.041096 9.819178 21.041096 21.041096s-8.416438 21.041096-21.041096 21.041096zM584.942466 437.654795c-5.610959 0-11.221918-1.40274-15.430137-5.610959s-5.610959-9.819178-5.610959-15.430137 1.40274-11.221918 5.610959-15.430137l392.767123-392.767124c9.819178-8.416438 22.443836-8.416438 30.860274 0 4.208219 4.208219 5.610959 9.819178 5.610959 15.430137s-1.40274 11.221918-5.610959 14.027398l-392.767123 392.767123c-4.208219 4.208219-9.819178 7.013699-15.430137 7.013699zM225.841096 514.805479H46.290411C35.068493 514.805479 25.249315 504.986301 25.249315 493.764384s9.819178-21.041096 21.041096-21.041096h179.550685c11.221918 0 21.041096 9.819178 21.041096 21.041096s-9.819178 21.041096-21.041096 21.041095zM225.841096 749.063014H46.290411c-11.221918 0-21.041096-9.819178-21.041096-21.041096s9.819178-21.041096 21.041096-21.041096h179.550685c11.221918 0 21.041096 9.819178 21.041096 21.041096s-9.819178 21.041096-21.041096 21.041096z" p-id="3320" fill="#ffffff"></path></svg>