<?xml version="1.0" encoding="utf-8"?>
<!-- Generator: Adobe Illustrator 22.0.0, SVG Export Plug-In . SVG Version: 6.00 Build 0)  -->
<svg version="1.1" id="图层_1" xmlns="http://www.w3.org/2000/svg" xmlns:xlink="http://www.w3.org/1999/xlink" x="0px" y="0px"
	 viewBox="0 0 3000 3000" style="enable-background:new 0 0 3000 3000;" xml:space="preserve">
<style type="text/css">
	.st0{fill:#FF916E;}
	.st1{fill:#CF7659;}
	.st2{fill-rule:evenodd;clip-rule:evenodd;fill:#4D565E;}
	.st3{fill-rule:evenodd;clip-rule:evenodd;fill:#343B42;}
	.st4{fill-rule:evenodd;clip-rule:evenodd;fill:#E6E6E6;}
	.st5{fill-rule:evenodd;clip-rule:evenodd;fill:#FDDA79;}
	.st6{fill-rule:evenodd;clip-rule:evenodd;fill:#92DEEB;}
	.st7{fill-rule:evenodd;clip-rule:evenodd;fill:#808080;}
	.st8{fill-rule:evenodd;clip-rule:evenodd;fill:#F77B55;}
	.st9{fill-rule:evenodd;clip-rule:evenodd;fill:#E6E5E5;}
	.st10{fill-rule:evenodd;clip-rule:evenodd;fill:#363F48;}
</style>
<g id="Coding_1_">
	<circle id="Background_3_" class="st0" cx="1500" cy="1500" r="1312.5"/>
	<g id="Coding">
		<path id="Compound" class="st1" d="M2100.4,653.5v109.6v5.6v6.1v103.5v5.6v6.1v103.5v5.6v6.1v103.5v5.6v6.1v109.6v5.6h-7.8h-140.7
			h-7.8h-8.3h-132.9h-7.8h-7.8h-132.9h-8.3h-7.8h-132.9h-7.8h-7.8h-133.5h-7.8h-7.8h-132.9h-7.8h-7.8h-141.3h-7.8v-5.6v-109.6v-6.1
			v-5.6V1005v-6.1v-5.6V889.9v-6.1v-5.6V774.8v-6.1v-5.6V653.5v-5.6h7.8h141.3h7.8h7.8h132.9h7.8h7.8h133.5h7.8h7.8h132.9h7.8h8.3
			h132.9h7.8h7.8h132.9h8.3h7.8h140.7h7.8V653.5z M2084.9,774.8h-132.9v103.5h132.9V774.8z M1935.8,774.8h-132.9v103.5h132.9V774.8z
			 M1787.3,774.8h-132.9v103.5h132.9V774.8z M1638.2,774.8h-132.9v103.5h132.9V774.8z M1489.7,774.8h-133.5v103.5h133.5V774.8z
			 M1340.6,774.8h-132.9v103.5h132.9V774.8z M1192.1,774.8h-133.5v103.5h133.5V774.8z M1058.6,763.1h133.5V659.6h-133.5V763.1z
			 M1207.7,763.1h132.9V659.6h-132.9V763.1z M1356.2,763.1h133.5V659.6h-133.5V763.1z M1505.3,763.1h132.9V659.6h-132.9V763.1z
			 M1654.3,763.1h132.9V659.6h-132.9V763.1z M1802.9,763.1h132.9V659.6h-132.9V763.1z M1951.9,763.1h132.9V659.6h-132.9V763.1z
			 M2084.9,889.9h-132.9v103.5h132.9V889.9z M1935.8,889.9h-132.9v103.5h132.9V889.9z M1787.3,889.9h-132.9v103.5h132.9V889.9z
			 M1638.2,889.9h-132.9v103.5h132.9V889.9z M1489.7,889.9h-133.5v103.5h133.5V889.9z M1340.6,889.9h-132.9v103.5h132.9V889.9z
			 M1192.1,889.9h-133.5v103.5h133.5V889.9z M2084.9,1005h-132.9v103.5h132.9V1005z M1935.8,1005h-132.9v103.5h132.9V1005z
			 M1787.3,1005h-132.9v103.5h132.9V1005z M1638.2,1005h-132.9v103.5h132.9V1005z M1489.7,1005h-133.5v103.5h133.5V1005z
			 M1340.6,1005h-132.9v103.5h132.9V1005z M1192.1,1005h-133.5v103.5h133.5V1005z M2084.9,1120.2h-132.9v103.5h132.9V1120.2z
			 M1935.8,1120.2h-132.9v103.5h132.9V1120.2z M1787.3,1120.2h-132.9v103.5h132.9V1120.2z M1638.2,1120.2h-132.9v103.5h132.9V1120.2
			z M1489.7,1120.2h-133.5v103.5h133.5V1120.2z M1340.6,1120.2h-132.9v103.5h132.9V1120.2z M1192.1,1120.2h-133.5v103.5h133.5
			V1120.2z"/>
		<g id="Laptop">
			<path class="st2" d="M767.1,1212.5h1460.1c30,0,54,24.5,54,54.5v997.3H712.6V1267C712.6,1237,737.1,1212.5,767.1,1212.5
				L767.1,1212.5z"/>
			<path class="st3" d="M470.1,2446.8h1026.8h1027.4c5.6,0,4.5-4.5-2.2-9.5l-220.8-169.6c-6.7-5.6-17.2-9.5-22.8-9.5h-781.5H716
				c-5.6,0-16.1,3.9-22.8,9.5l-220.8,169.6C465.6,2442.4,464.5,2446.8,470.1,2446.8L470.1,2446.8z"/>
			<path class="st2" d="M477.9,2434.6c679.7,0,1358.9,0,2038.6,0c15,0,16.7,12.8,3.3,28.4l-27.8,31.2
				c-13.9,15.6-37.3,27.8-52.9,27.8c-628,0-1256,0-1884,0c-15.6,0-38.9-12.2-52.8-27.8l-27.8-31.2
				C461.2,2447.4,462.3,2434.6,477.9,2434.6L477.9,2434.6z"/>
			<polygon class="st4" points="1337.3,2352.2 1423.5,2352.2 1570.9,2352.2 1657.1,2352.2 1705.5,2405.1 1522.5,2405.1 
				1471.9,2405.1 1288.9,2405.1 			"/>
			<rect x="762.1" y="1280.4" class="st4" width="1470.1" height="930.6"/>
		</g>
		<g id="Circle">
			<path class="st5" d="M500.1,2228.8c171.9,0,312.1-140.2,312.1-312.1c0-171.9-140.2-312-312.1-312s-312,140.2-312,312
				C188.1,2088.6,328.3,2228.8,500.1,2228.8L500.1,2228.8z"/>
			<path class="st6" d="M2323.5,1567.4c268.1,0,487.3-218.6,487.3-487.3c0-268.1-219.2-486.7-487.3-486.7
				c-268.1,0-487.3,218.6-487.3,486.7C1836.2,1348.8,2055.4,1567.4,2323.5,1567.4L2323.5,1567.4z"/>
		</g>
		<g id="Codes">
			<rect x="864.5" y="1457.3" class="st7" width="811.5" height="46.2"/>
			<rect x="1337.8" y="1547.9" class="st7" width="481.1" height="39.5"/>
			<rect x="892.8" y="1631.4" class="st7" width="480.6" height="39.5"/>
			<rect x="892.8" y="1806" class="st7" width="480.6" height="39.5"/>
			<rect x="892.8" y="1875.5" class="st7" width="480.6" height="40.1"/>
			<rect x="1415.2" y="1875.5" class="st8" width="151.8" height="40.1"/>
			<rect x="1619.8" y="1875.5" class="st7" width="151.9" height="40.1"/>
			<rect x="1428" y="1808.3" class="st7" width="343.7" height="39.5"/>
			<rect x="1480.8" y="1631.4" class="st7" width="259.2" height="39.5"/>
			<rect x="926.8" y="1547.9" class="st7" width="139.1" height="39.5"/>
			<rect x="1125.9" y="1547.9" class="st8" width="139" height="39.5"/>
			<rect x="1764.5" y="1457.3" class="st8" width="124" height="46.2"/>
			<rect x="892.8" y="1973.5" class="st7" width="153.5" height="39.5"/>
			<rect x="1097.5" y="1973.5" class="st8" width="153.5" height="39.5"/>
			<rect x="1318.4" y="1973.5" class="st7" width="248.6" height="39.5"/>
		</g>
		<g id="Text">
			<path class="st2" d="M304.9,1929.5v-25l144.1-61.2v26.7l-114,46.7l114,47.8v26.7L304.9,1929.5z M465.6,2028l63.4-224.7h21.7
				L487.4,2028H465.6z M710.9,1929.5l-143.5,61.7v-26.7l113.5-47.8L567.5,1870v-26.7l143.5,61.2V1929.5z"/>
			<g>
				<polygon class="st2" points="1969.7,1079.6 1969.7,1055.1 2081,995.6 2081,1021.7 1992.5,1067.3 2081,1114.1 2081,1140.2 				
					"/>
				<path class="st2" d="M2204.5,1082.9l18.4,2.8c-2.2,12.8-7.3,22.8-15.6,30c-8.3,7.2-18.9,10.6-31.2,10.6c-15,0-27.3-5-36.7-15
					c-9.5-10-13.9-23.9-13.9-42.8c0-12.2,2.2-22.8,6.1-31.7c3.9-8.9,10-15.6,18.4-20.6c7.8-4.5,16.7-6.7,26.7-6.7
					c11.7,0,21.7,3.3,29.5,9.5c7.8,6.1,12.8,15,15,26.1l-18.4,2.8c-1.7-7.8-5-13.4-9.5-17.2c-4.4-3.3-10-5.6-16.1-5.6
					c-9.5,0-17.3,3.3-23.4,10.6c-6.1,6.7-8.9,17.2-8.9,32.3c0,15,2.8,26.1,8.3,32.8c6.1,6.7,13.4,10,22.8,10
					c7.2,0,13.9-2.2,18.9-6.7C2200,1099.6,2202.8,1092.4,2204.5,1082.9L2204.5,1082.9z"/>
				<path class="st2" d="M2231.7,1067.9c0-20.6,6.1-36.2,17.8-45.6c9.4-8.3,21.1-12.8,35-12.8c15.6,0,27.8,5,37.8,15
					c9.5,10,14.5,24.5,14.5,41.7c0,14.5-2.2,26.2-6.7,33.9c-3.9,8.3-10.6,15-18.4,19.5c-8.3,4.4-17.8,6.7-27.3,6.7
					c-15.6,0-28.4-5-38.4-15C2236.7,1101.3,2231.7,1086.8,2231.7,1067.9L2231.7,1067.9z M2251.2,1067.9c0,14.5,3.3,25,9.5,32.3
					c6.7,7.2,14.4,10.6,23.9,10.6c9.4,0,17.3-3.3,23.4-10.6c6.7-7.2,9.4-17.8,9.4-32.8c0-13.9-3.3-23.9-9.4-31.1
					c-6.1-7.2-13.9-10.6-23.4-10.6c-9.5,0-17.2,3.3-23.9,10.6C2254.5,1042.9,2251.2,1054,2251.2,1067.9L2251.2,1067.9z"/>
				<path class="st2" d="M2431.4,1124.1v-13.9c-6.7,10.6-17.2,16.1-31.2,16.1c-8.9,0-17.2-2.2-24.5-7.2c-7.8-5-13.3-11.7-17.8-20.6
					c-3.9-8.9-6.1-18.9-6.1-30.6c0-11.1,2.2-21.2,5.6-30c3.9-8.9,9.5-16.1,17.2-21.1c7.2-4.5,15.6-7.2,24.5-7.2
					c7.3,0,12.8,1.7,18.4,4.4c5,2.8,9.5,6.7,12.8,11.1v-55.6h18.9v154.6H2431.4z M2371.3,1068.4c0,13.9,3.3,25,9.4,31.7
					c6.1,7.2,13.4,10.6,21.2,10.6c8.3,0,15.6-3.3,21.1-10c6.1-6.7,8.9-17.2,8.9-31.1c0-15-2.8-26.1-8.9-33.4
					c-5.6-7.2-13.3-10.6-21.7-10.6s-15.6,3.3-21.1,10C2374.1,1042.3,2371.3,1053.4,2371.3,1068.4L2371.3,1068.4z"/>
				<path class="st2" d="M2556,1087.9l19.5,2.2c-2.8,11.7-8.9,20.6-17.2,26.7c-8.3,6.7-18.9,9.5-31.7,9.5c-16.7,0-29.5-5-38.9-15
					c-9.5-10-14.5-23.9-14.5-42.3c0-18.9,5-33.4,14.5-43.9c9.4-10,22.3-15.6,37.8-15.6c15,0,27.3,5,36.7,15.6
					c9.5,10,13.9,24.5,13.9,42.8c0,1.1,0,2.8,0,5h-83.4c0.6,12.2,3.9,21.7,10.5,28.4c6.1,6.7,13.9,9.5,23.4,9.5
					c6.7,0,12.8-1.7,17.8-5.6C2549.3,1101.8,2553.2,1095.7,2556,1087.9L2556,1087.9z M2493.7,1057.3h62.3
					c-0.6-9.5-3.3-16.7-7.2-21.1c-6.1-7.2-13.9-11.1-23.4-11.1c-8.9,0-16.1,2.8-21.7,8.9C2497.6,1039.5,2494.3,1047.3,2493.7,1057.3
					L2493.7,1057.3z"/>
				<polygon class="st2" points="2732.3,1079.6 2621.1,1140.2 2621.1,1114.1 2709,1067.3 2621.1,1021.7 2621.1,995.6 2732.3,1055.1 
									"/>
			</g>
		</g>
		<g id="Gears_1_">
			<path class="st4" d="M775.5,897.7c16.7,8.9,31.2,21.1,42.8,35.6l53.4-19.5l30,82.9l-53.4,19.5c0.6,8.9-0.6,18.3-2.2,27.8
				c-1.7,9.4-3.9,18.4-7.2,26.7l43.4,36.7l-56.7,67.3l-43.4-36.2c-15.6,9.5-33.4,16.1-52.3,18.9l-10,55.6l-86.2-15l9.4-56.2
				c-16.7-8.9-31.1-21.1-42.8-35.6l-52.9,19.5l-30.6-82.9l53.4-19.5c0-8.9,0.6-18.4,2.2-27.8c1.7-9.5,4.4-18.4,7.8-26.7l-44-36.7
				l56.8-67.3l43.4,36.7c16.1-10,33.9-16.7,52.3-19.5l10-55.6l86.8,15L775.5,897.7z"/>
			<path class="st9" d="M1360.6,715.2c14.5,23.9,23.3,50.1,27.2,77.3l81.8,15.6l-23.9,126.3l-81.8-15c-6.7,11.7-14.4,22.8-23.3,33.4
				c-8.9,10.6-18.9,20-29.5,28.4l27.2,78.4l-121.8,42.8l-27.3-78.4c-27.3,0.5-54.5-4.4-80.1-15l-54.5,62.9l-97.9-84l54.5-62.9
				c-14.5-23.9-23.3-50.1-27.2-77.3l-81.8-15l23.9-126.8l81.8,15c6.7-11.7,14.5-22.8,23.3-33.4c9.5-10.6,18.9-20,30.1-28.4
				l-27.8-78.4l121.8-42.8l27.3,78.4c27.2,0,54.5,4.5,80.6,15l54-62.9l97.9,84L1360.6,715.2z"/>
			<path class="st10" d="M717.1,976.7c23.9,3.9,40,26.7,35.6,50.6c-3.9,23.9-26.7,40-50.6,35.6c-23.9-3.9-40.1-26.7-36.2-50.6
				C670.4,988.4,693.2,972.2,717.1,976.7L717.1,976.7z M724.3,934.4c47.3,8.3,78.4,53.4,70.1,100.7c-7.8,46.7-52.8,78.4-100.1,70.1
				c-46.7-8.3-78.4-53.4-70.1-100.1C632.5,957.8,677.6,926.1,724.3,934.4L724.3,934.4z"/>
			<path class="st10" d="M1228.3,771.4c26.7,22.8,30,64,6.7,90.7c-23.4,27.3-64,30-90.7,6.7c-27.3-22.8-30.6-63.4-7.2-90.7
				C1160.4,751.4,1201,748.1,1228.3,771.4L1228.3,771.4z M1268.9,724.1c52.9,45.6,59,125.7,13.4,178.6
				c-45.6,53.4-125.7,59.5-178.6,13.9c-53.4-45.6-59.5-125.7-13.9-179.1C1135.4,684.1,1215.5,678.5,1268.9,724.1L1268.9,724.1z"/>
		</g>
	</g>
</g>
</svg>
