<?xml version="1.0" encoding="utf-8"?>
<!-- Generator: Adobe Illustrator 22.0.0, SVG Export Plug-In . SVG Version: 6.00 Build 0)  -->
<svg version="1.1" id="图层_1" xmlns="http://www.w3.org/2000/svg" xmlns:xlink="http://www.w3.org/1999/xlink" x="0px" y="0px"
	 viewBox="0 0 24 42" style="enable-background:new 0 0 24 42;" xml:space="preserve">
<style type="text/css">
	.st0{fill:#E0650D;}
</style>
<g id="XMLID_1_">
	<g>
		<path class="st0" d="M24,23c0.2,1-0.9,3.3-1,4s-5.2,6.3-5,5c0.2-1.3,0.2-3.1,0-6s-3-3-3-3v1c0,0-1.8-2-1.6-2.8
			C13.5,20.5,12,19,12,19s-0.4,1.6-1.6,2.4C9.2,22.3,6,28,6,28v3.5c-0.2-0.1-0.4-0.1-0.7-0.2c-1.9-0.5-3-1.9-3.6-2.9c0,0,0,0,0,0
			C1.5,28,1.4,27.5,1,26.6C-0.7,22.2,1,17,1,17c-0.6,0.1,2.4-4.9,3-5c0.7-0.1,7.8-6.8,7.1-10.6L11,1c0,0-0.7-0.3,0-1s-0.1,0,2,2
			s3,9,3,9l1,1V8c0,0,4.5,3.4,6,7S23.8,22,24,23z"/>
		<path class="st0" d="M14,29v12h-1v-1c0,0,0.3-6.2,0-6s0.9-0.8,0-1s-1,1-1,1v7h-2V30c0,0-0.5-0.1,0-1s2-1,2-1
			C12.7,27.8,14,29,14,29z"/>
		<path class="st0" d="M6,31.5C8.1,32.2,6,32,6,32V31.5z"/>
		<path class="st0" d="M1.7,28.4c0.2,0.7,0,0.1-0.3-0.5C1.4,28,1.5,28.2,1.7,28.4C1.6,28.4,1.6,28.4,1.7,28.4z"/>
		<path class="st0" d="M1,27c0,0.1,0.1,0.4,0.3,0.7C1.1,27.3,1,27.1,1,27z"/>
	</g>
	<g>
	</g>
</g>
</svg>
